<svg width="187" height="56" viewBox="0 0 187 56" fill="none" xmlns="http://www.w3.org/2000/svg">
<path d="M6.94318 25.7273V49H2.02273V25.7273H6.94318ZM15.7415 38.9091V49H10.9006V31.5455H15.5142V34.625H15.7188C16.1051 33.6098 16.7528 32.8068 17.6619 32.2159C18.571 31.6174 19.6733 31.3182 20.9688 31.3182C22.1809 31.3182 23.2377 31.5833 24.1392 32.1136C25.0407 32.6439 25.7415 33.4015 26.2415 34.3864C26.7415 35.3636 26.9915 36.5303 26.9915 37.8864V49H22.1506V38.75C22.1581 37.6818 21.8854 36.8485 21.3324 36.25C20.7794 35.6439 20.018 35.3409 19.0483 35.3409C18.3968 35.3409 17.821 35.4811 17.321 35.7614C16.8286 36.0417 16.4422 36.4508 16.1619 36.9886C15.8892 37.5189 15.7491 38.1591 15.7415 38.9091ZM38.2131 55.5455V31.5455H42.9858V34.4773H43.2017C43.4138 34.0076 43.7206 33.5303 44.1222 33.0455C44.5313 32.553 45.0616 32.1439 45.7131 31.8182C46.3722 31.4848 47.1903 31.3182 48.1676 31.3182C49.4403 31.3182 50.6146 31.6515 51.6903 32.3182C52.7661 32.9773 53.6259 33.9735 54.2699 35.3068C54.9138 36.6326 55.2358 38.2955 55.2358 40.2955C55.2358 42.2424 54.9214 43.8864 54.2926 45.2273C53.6714 46.5606 52.8229 47.572 51.7472 48.2614C50.679 48.9432 49.482 49.2841 48.1562 49.2841C47.2169 49.2841 46.4176 49.1288 45.7585 48.8182C45.107 48.5076 44.5729 48.1174 44.1562 47.6477C43.7396 47.1705 43.4214 46.6894 43.2017 46.2045H43.054V55.5455H38.2131ZM42.9517 40.2727C42.9517 41.3106 43.0956 42.2159 43.3835 42.9886C43.6714 43.7614 44.0881 44.3636 44.6335 44.7955C45.179 45.2197 45.8419 45.4318 46.6222 45.4318C47.41 45.4318 48.0767 45.2159 48.6222 44.7841C49.1676 44.3447 49.5805 43.7386 49.8608 42.9659C50.1487 42.1856 50.2926 41.2879 50.2926 40.2727C50.2926 39.2652 50.1525 38.3788 49.8722 37.6136C49.5919 36.8485 49.179 36.25 48.6335 35.8182C48.0881 35.3864 47.4176 35.1705 46.6222 35.1705C45.8343 35.1705 45.1676 35.3788 44.6222 35.7955C44.0843 36.2121 43.6714 36.803 43.3835 37.5682C43.0956 38.3333 42.9517 39.2348 42.9517 40.2727ZM58.4631 49V31.5455H63.1562V34.5909H63.3381C63.6563 33.5076 64.1903 32.6894 64.9403 32.1364C65.6903 31.5758 66.554 31.2955 67.5312 31.2955C67.7737 31.2955 68.035 31.3106 68.3153 31.3409C68.5956 31.3712 68.8419 31.4129 69.054 31.4659V35.7614C68.8267 35.6932 68.5123 35.6326 68.1108 35.5795C67.7093 35.5265 67.3419 35.5 67.0085 35.5C66.2964 35.5 65.66 35.6553 65.0994 35.9659C64.5464 36.2689 64.107 36.6932 63.7812 37.2386C63.4631 37.7841 63.304 38.4129 63.304 39.125V49H58.4631ZM109.045 55.9091C107.477 55.9091 106.133 55.6932 105.011 55.2614C103.898 54.8371 103.011 54.2576 102.352 53.5227C101.693 52.7879 101.265 51.9621 101.068 51.0455L105.545 50.4432C105.682 50.7917 105.898 51.1174 106.193 51.4205C106.489 51.7235 106.879 51.9659 107.364 52.1477C107.856 52.3371 108.455 52.4318 109.159 52.4318C110.212 52.4318 111.08 52.1742 111.761 51.6591C112.451 51.1515 112.795 50.2992 112.795 49.1023V45.9091H112.591C112.379 46.3939 112.061 46.8523 111.636 47.2841C111.212 47.7159 110.667 48.0682 110 48.3409C109.333 48.6136 108.538 48.75 107.614 48.75C106.303 48.75 105.11 48.447 104.034 47.8409C102.966 47.2273 102.114 46.2917 101.477 45.0341C100.848 43.7689 100.534 42.1705 100.534 40.2386C100.534 38.2614 100.856 36.6098 101.5 35.2841C102.144 33.9583 103 32.9659 104.068 32.3068C105.144 31.6477 106.322 31.3182 107.602 31.3182C108.58 31.3182 109.398 31.4848 110.057 31.8182C110.716 32.1439 111.246 32.553 111.648 33.0455C112.057 33.5303 112.371 34.0076 112.591 34.4773H112.773V31.5455H117.58V49.1705C117.58 50.6553 117.216 51.8977 116.489 52.8977C115.761 53.8977 114.754 54.6477 113.466 55.1477C112.186 55.6553 110.712 55.9091 109.045 55.9091ZM109.148 45.1136C109.928 45.1136 110.587 44.9205 111.125 44.5341C111.67 44.1402 112.087 43.5795 112.375 42.8523C112.67 42.1174 112.818 41.2386 112.818 40.2159C112.818 39.1932 112.674 38.3068 112.386 37.5568C112.098 36.7992 111.682 36.2121 111.136 35.7955C110.591 35.3788 109.928 35.1705 109.148 35.1705C108.352 35.1705 107.682 35.3864 107.136 35.8182C106.591 36.2424 106.178 36.8333 105.898 37.5909C105.617 38.3485 105.477 39.2235 105.477 40.2159C105.477 41.2235 105.617 42.0947 105.898 42.8295C106.186 43.5568 106.598 44.1212 107.136 44.5227C107.682 44.9167 108.352 45.1136 109.148 45.1136ZM121.432 49V31.5455H126.125V34.5909H126.307C126.625 33.5076 127.159 32.6894 127.909 32.1364C128.659 31.5758 129.523 31.2955 130.5 31.2955C130.742 31.2955 131.004 31.3106 131.284 31.3409C131.564 31.3712 131.811 31.4129 132.023 31.4659V35.7614C131.795 35.6932 131.481 35.6326 131.08 35.5795C130.678 35.5265 130.311 35.5 129.977 35.5C129.265 35.5 128.629 35.6553 128.068 35.9659C127.515 36.2689 127.076 36.6932 126.75 37.2386C126.432 37.7841 126.273 38.4129 126.273 39.125V49H121.432ZM141.668 49.3409C139.872 49.3409 138.327 48.9773 137.031 48.25C135.743 47.5152 134.751 46.4773 134.054 45.1364C133.357 43.7879 133.009 42.1932 133.009 40.3523C133.009 38.5568 133.357 36.9811 134.054 35.625C134.751 34.2689 135.732 33.2121 136.997 32.4545C138.27 31.697 139.762 31.3182 141.474 31.3182C142.626 31.3182 143.698 31.5038 144.69 31.875C145.69 32.2386 146.562 32.7879 147.304 33.5227C148.054 34.2576 148.637 35.1818 149.054 36.2955C149.471 37.4015 149.679 38.697 149.679 40.1818V41.5114H134.94V38.5114H145.122C145.122 37.8144 144.971 37.197 144.668 36.6591C144.365 36.1212 143.944 35.7008 143.406 35.3977C142.876 35.0871 142.259 34.9318 141.554 34.9318C140.819 34.9318 140.168 35.1023 139.599 35.4432C139.039 35.7765 138.599 36.2273 138.281 36.7955C137.963 37.3561 137.8 37.9811 137.793 38.6705V41.5227C137.793 42.3864 137.952 43.1326 138.27 43.7614C138.596 44.3902 139.054 44.875 139.645 45.2159C140.236 45.5568 140.937 45.7273 141.747 45.7273C142.285 45.7273 142.777 45.6515 143.224 45.5C143.671 45.3485 144.054 45.1212 144.372 44.8182C144.69 44.5152 144.933 44.1439 145.099 43.7045L149.577 44C149.349 45.0758 148.884 46.0152 148.179 46.8182C147.482 47.6136 146.58 48.2348 145.474 48.6818C144.376 49.1212 143.107 49.3409 141.668 49.3409ZM167.361 36.5227L162.929 36.7955C162.853 36.4167 162.69 36.0758 162.44 35.7727C162.19 35.4621 161.861 35.2159 161.452 35.0341C161.05 34.8447 160.569 34.75 160.009 34.75C159.259 34.75 158.626 34.9091 158.111 35.2273C157.596 35.5379 157.338 35.9545 157.338 36.4773C157.338 36.8939 157.505 37.2462 157.838 37.5341C158.171 37.822 158.743 38.053 159.554 38.2273L162.713 38.8636C164.41 39.2121 165.675 39.7727 166.509 40.5455C167.342 41.3182 167.759 42.3333 167.759 43.5909C167.759 44.7348 167.421 45.7386 166.747 46.6023C166.08 47.4659 165.164 48.1402 163.997 48.625C162.838 49.1023 161.501 49.3409 159.986 49.3409C157.675 49.3409 155.834 48.8598 154.463 47.8977C153.099 46.928 152.3 45.6098 152.065 43.9432L156.827 43.6932C156.971 44.3977 157.319 44.9356 157.872 45.3068C158.425 45.6705 159.134 45.8523 159.997 45.8523C160.846 45.8523 161.527 45.6894 162.043 45.3636C162.565 45.0303 162.83 44.6023 162.838 44.0795C162.83 43.6402 162.645 43.2803 162.281 43C161.918 42.7121 161.357 42.4924 160.599 42.3409L157.577 41.7386C155.872 41.3977 154.603 40.8068 153.77 39.9659C152.944 39.125 152.531 38.053 152.531 36.75C152.531 35.6288 152.834 34.6629 153.44 33.8523C154.054 33.0417 154.914 32.4167 156.02 31.9773C157.134 31.5379 158.437 31.3182 159.929 31.3182C162.134 31.3182 163.868 31.7841 165.134 32.7159C166.406 33.6477 167.149 34.9167 167.361 36.5227ZM185.33 36.5227L180.898 36.7955C180.822 36.4167 180.659 36.0758 180.409 35.7727C180.159 35.4621 179.83 35.2159 179.42 35.0341C179.019 34.8447 178.538 34.75 177.977 34.75C177.227 34.75 176.595 34.9091 176.08 35.2273C175.564 35.5379 175.307 35.9545 175.307 36.4773C175.307 36.8939 175.473 37.2462 175.807 37.5341C176.14 37.822 176.712 38.053 177.523 38.2273L180.682 38.8636C182.379 39.2121 183.644 39.7727 184.477 40.5455C185.311 41.3182 185.727 42.3333 185.727 43.5909C185.727 44.7348 185.39 45.7386 184.716 46.6023C184.049 47.4659 183.133 48.1402 181.966 48.625C180.807 49.1023 179.47 49.3409 177.955 49.3409C175.644 49.3409 173.803 48.8598 172.432 47.8977C171.068 46.928 170.269 45.6098 170.034 43.9432L174.795 43.6932C174.939 44.3977 175.288 44.9356 175.841 45.3068C176.394 45.6705 177.102 45.8523 177.966 45.8523C178.814 45.8523 179.496 45.6894 180.011 45.3636C180.534 45.0303 180.799 44.6023 180.807 44.0795C180.799 43.6402 180.614 43.2803 180.25 43C179.886 42.7121 179.326 42.4924 178.568 42.3409L175.545 41.7386C173.841 41.3977 172.572 40.8068 171.739 39.9659C170.913 39.125 170.5 38.053 170.5 36.75C170.5 35.6288 170.803 34.6629 171.409 33.8523C172.023 33.0417 172.883 32.4167 173.989 31.9773C175.102 31.5379 176.405 31.3182 177.898 31.3182C180.102 31.3182 181.837 31.7841 183.102 32.7159C184.375 33.6477 185.117 34.9167 185.33 36.5227Z" fill="#141414"/>
<g clip-path="url(#clip0_262_2189)">
<path d="M79.4112 40.3832C79.4112 37.6008 81.6106 35.4265 84.4087 35.4348C87.2323 35.4473 89.6482 37.6924 89.6482 40.3082C89.6482 43.0782 87.3512 45.2983 84.4851 45.2941C81.53 45.2941 79.407 43.2406 79.4112 40.3832Z" fill="#8045D3"/>
<path d="M88.2003 30.7405C88.4636 32.165 86.5232 34.3726 85.1178 34.6892C84.0138 34.935 82.6891 34.5976 81.9715 33.5812C81.0204 32.24 80.5619 30.7696 80.8761 29.1576C81.1393 27.8206 82.515 26.8375 83.895 27.0208C85.5806 27.2499 87.0582 27.883 87.9201 29.4784C88.1494 29.9032 88.2301 30.3156 88.2003 30.7363V30.7405Z" fill="#FF9DB6"/>
<path d="M76.5325 30.4197C76.7745 30.4322 76.9273 30.4197 77.0675 30.4531C78.7319 30.8654 79.5004 32.0817 79.9335 33.5646C80.3199 34.8975 80.2689 36.1804 79.0631 37.1259C77.6789 38.2131 75.403 38.4963 73.8066 37.5091C72.864 36.926 72.4691 35.8472 72.6814 34.7184C72.9659 33.2063 73.7386 31.9901 74.953 31.032C75.437 30.6488 76.006 30.4614 76.5325 30.4197Z" fill="#FF9DB6" fill-opacity="0.15"/>
<path d="M97.9915 41.2538C98.0722 42.6366 97.4777 43.8071 96.6837 44.8734C95.8515 45.9856 94.4928 46.2771 93.2573 45.5982C91.6735 44.7276 90.7776 43.3947 90.6715 41.5787C90.612 40.5748 91.0494 39.8167 91.8221 39.2502C93.1511 38.2797 94.6202 37.859 96.2591 38.3797C97.4735 38.7629 97.9957 39.6501 97.9873 41.2579L97.9915 41.2538Z" fill="#FF9DB6" fill-opacity="0.75"/>
<path d="M79.7127 52.4335C78.8932 52.4085 77.5345 51.9795 76.4518 50.984C75.1568 49.7927 75.3818 47.71 76.8339 46.6937C77.8742 45.9648 78.9484 45.34 80.2986 45.4191C81.5045 45.4899 82.4386 45.9856 82.9778 47.0811C83.292 47.7225 83.5977 48.3765 83.6614 49.0971C83.861 51.2714 82.7018 52.4377 79.7127 52.4335Z" fill="#FF9DB6" fill-opacity="0.4"/>
<path d="M84.8291 49.5511C84.8758 48.3973 85.3428 46.9519 86.8671 46.098C88.8203 45.0026 92.0981 46.4729 92.6119 48.6264C92.8836 49.7719 92.3317 50.6882 91.5716 51.4338C90.5908 52.4002 89.3298 52.9375 87.9244 52.9958C85.8906 53.0833 84.8291 52.0295 84.8248 49.5511H84.8291Z" fill="#FF9DB6" fill-opacity="0.55"/>
<path d="M73.9552 38.4213C76.0442 38.4297 78.2691 40.3624 78.3667 42.3367C78.405 43.1282 78.0525 43.8654 77.5218 44.4819C76.6726 45.4691 75.5687 46.0314 74.2821 46.248C73.3565 46.4021 72.1209 45.6815 71.6199 44.711C70.8854 43.2864 70.8429 41.7869 71.2845 40.2916C71.6624 39.0086 72.5965 38.413 73.9552 38.4172V38.4213Z" fill="#FF9DB6" fill-opacity="0.2"/>
<path d="M92.6289 37.5591C91.1853 37.355 89.5421 37.0135 88.7523 35.2224C88.0942 33.7312 88.6929 32.4857 89.5845 31.3319C90.37 30.3114 91.44 29.8158 92.7648 30.0074C93.5545 30.1198 94.1192 30.6238 94.6032 31.2028C95.3718 32.1192 95.8558 33.1814 96.0596 34.3435C96.3908 36.247 95.0703 37.5799 92.6331 37.5633L92.6289 37.5591Z" fill="#FF9DB6" fill-opacity="0.9"/>
</g>
<defs>
<clipPath id="clip0_262_2189">
<rect width="27" height="26" fill="white" transform="translate(71 27)"/>
</clipPath>
</defs>
</svg>
